<svg width="183" height="3038" viewBox="0 0 183 3038" fill="none" xmlns="http://www.w3.org/2000/svg">
<path d="M-574.037 0.245467C-482.904 -3.34008 -391.119 32.3864 -303.921 105.385C-216.723 178.384 -135.821 287.225 -65.8324 425.694C4.15577 564.164 61.8588 729.55 103.982 912.409C146.106 1095.27 171.824 1292.02 179.67 1491.43C187.516 1690.84 177.335 1889.01 149.708 2074.61C122.082 2260.21 77.5509 2429.62 18.6582 2573.16C-40.2345 2716.7 -112.336 2831.56 -193.529 2911.19C-274.722 2990.81 -363.417 3033.64 -454.549 3037.22L-460.676 2881.51C-378.888 2878.3 -299.288 2839.86 -226.421 2768.4C-153.554 2696.94 -88.8461 2593.86 -35.9925 2465.04C16.8612 2336.22 56.8256 2184.18 81.6192 2017.61C106.413 1851.04 115.55 1673.19 108.509 1494.23C101.467 1315.27 78.386 1138.69 40.5821 974.584C2.77818 810.475 -49.0078 662.049 -111.819 537.779C-174.63 413.508 -247.237 315.828 -325.493 250.315C-403.75 184.802 -486.123 152.739 -567.911 155.957L-574.037 0.245467Z" fill="#04BCBC" fill-opacity="0.22"/>
</svg>
