<svg width="1440" height="713" viewBox="0 0 1440 713" fill="none" xmlns="http://www.w3.org/2000/svg">
<path d="M-795.682 676.488C-794.59 585.291 -754.204 495.459 -676.83 412.119C-599.456 328.779 -486.609 253.564 -344.733 190.768C-202.857 127.973 -34.7299 78.8262 150.049 46.135C334.828 13.4438 532.64 -2.15199 732.191 0.238118C931.742 2.62823 1129.12 22.9574 1313.07 60.065C1497.01 97.1725 1663.91 150.332 1804.24 216.507C1944.57 282.683 2055.59 360.579 2130.94 445.749C2206.3 530.918 2244.52 621.692 2243.43 712.889L2087.61 711.022C2088.59 629.177 2054.28 547.712 1986.66 471.276C1919.03 394.84 1819.4 324.932 1693.46 265.542C1567.52 206.152 1417.73 158.444 1252.65 125.142C1087.57 91.8391 910.426 73.5945 731.338 71.4495C552.25 69.3045 374.722 83.301 208.891 112.64C43.0598 141.979 -107.827 186.086 -235.155 242.442C-362.482 298.798 -463.757 366.3 -533.197 441.094C-602.637 515.888 -638.881 596.509 -639.862 678.354L-795.682 676.488Z" fill="#04BCBC" fill-opacity="0.22"/>
</svg>
